<svg xmlns="http://www.w3.org/2000/svg" width="62" height="59" viewBox="0 0 62 59">
    <g fill="none" fill-rule="evenodd">
        <path d="M-4-6h70v70H-4z"/>
        <path fill="#000" fill-rule="nonzero" stroke="#000" stroke-linecap="round" stroke-linejoin="round" stroke-width=".8" d="M45.493 53.369H32.722v-.475l-.008-7.948v-.692h22.302a4.561 4.561 0 0 1 4.555 4.558 4.561 4.561 0 0 1-4.555 4.557h-9.523zm9.523 1.433c3.299 0 5.984-2.687 5.984-5.99a5.999 5.999 0 0 0-4.31-5.75l-.269-.079-2.135-9.492-.011-.104V22.295l.304-.117c1.285-.495 1.944-1.164 1.944-1.983v-7.292a.778.778 0 0 0-.005-.082l-.004-.023a1.166 1.166 0 0 0-.01-.056l-.006-.024-.02-.065-.016-.04.005.012a.69.69 0 0 0-.044-.088L50 1.359a.713.713 0 0 0-1.238 0l-3.52 6.128-.407-.213A30.135 30.135 0 0 0 30.861 3.84c-4.872 0-9.679 1.182-13.974 3.434l-.407.213-.228-.398-3.292-5.73a.713.713 0 0 0-1.238 0L5.307 12.525a.725.725 0 0 0-.079.18l-.003.013-.003.01a.898.898 0 0 0-.013.07l-.003.019a.767.767 0 0 0-.006.086v7.292c0 .82.659 1.488 1.943 1.983l.305.117v11.093l-.011.104-2.153 9.571-.25.087A5.998 5.998 0 0 0 1 48.812c0 3.302 2.685 5.99 5.984 5.99h6.453l.112.317A4.322 4.322 0 0 0 17.616 58h10.953a1.1 1.1 0 0 0 .132-.011c1.708-.117 3.195-1.264 3.771-2.872l.113-.315H55.016zM24.644 37.314a4.322 4.322 0 0 0-4.315 4.32v1.187h-.985l-2.099-9.33-.011-.104v-.831H44.49v.831l-.012.104-2.099 9.33h-2.367v-1.187c0-2.38-1.956-4.318-4.362-4.32l-.036.001H24.643zm11.003 1.433c1.595 0 2.937 1.315 2.937 2.887v1.184h-5.872v-.474l-.001-.71c0-1.572 1.341-2.887 2.936-2.887zM12.341 21.525c-1.458 0-2.863-.163-3.979-.464a4.268 4.268 0 0 1-.036-.008c-.715-.195-1.26-.434-1.535-.674l-.163-.142v-6.618h11.426v6.618l-.163.142c-.275.24-.82.478-1.545.676a1.358 1.358 0 0 1-.027.006c-1.106.3-2.515.464-3.978.464zm7.141-1.33v-1.986l.201-.142a19.263 19.263 0 0 1 11.178-3.542c4.036 0 7.889 1.221 11.178 3.542l.202.142v1.986c0 .819.659 1.488 1.944 1.982l.305.118v3.554H17.233v-3.554l.305-.118c1.285-.494 1.944-1.163 1.944-1.982zm25.885.857c-.715-.195-1.26-.433-1.535-.673l-.163-.142v-6.618h11.426v6.618l-.163.142c-.274.24-.82.478-1.551.678l-.026.005c-1.106.3-2.513.463-3.973.463-1.466 0-2.878-.165-3.97-.462a.668.668 0 0 1-.045-.01zm-1.518 21.746l1.926-8.562h7.214l1.927 8.562H43.849zm.64-15.516v3.841H17.233v-3.84H44.49zM6.807 42.798l1.927-8.562h7.214l1.926 8.562H6.807zm39.111-9.995V22.665l.548.083c.676.103 1.402.168 2.165.196h-.007.009c.099.004.203.006.321.009h.039l.026.002a23.816 23.816 0 0 0 .724 0l.029-.001.04-.001.301-.008.027-.001h.01a18.86 18.86 0 0 0 2.148-.196l.548-.083v10.138h-6.928zm3.464-29.652l5.19 9.035H44.192l.409-.71.949-1.653.578-1.007 3.255-5.665zm-30.004 9.38l-2.185-3.805.44-.228A28.713 28.713 0 0 1 30.86 5.273c4.612 0 9.16 1.11 13.23 3.225l.439.228-.247.43-1.963 3.416c.026-.045.03-.05.032-.057a.985.985 0 0 0-.055.108c0 .003-.002.006-.004.01a.965.965 0 0 0-.03.097.865.865 0 0 0-.022.173v3.549l-.721-.431a20.656 20.656 0 0 0-10.659-2.93 20.655 20.655 0 0 0-10.658 2.93l-.72.43v-3.548a.753.753 0 0 0-.007-.088l-.004-.024a.65.65 0 0 0-.01-.05l-.005-.023-.004-.013a.691.691 0 0 0-.075-.174zm-3.204-2.708l1.358 2.363H7.15l5.191-9.035 3.254 5.664.58 1.008zm-4.591 13.12l.009.001.321.01h.064a23.922 23.922 0 0 0 .724 0h.068a23.214 23.214 0 0 0 .33-.01h.01a18.965 18.965 0 0 0 2.148-.196l.548-.083v10.138H8.877V22.665l.548.083a18.97 18.97 0 0 0 2.158.196zM2.429 48.813a4.56 4.56 0 0 1 4.555-4.558h13.345v6.261h-6.313a.716.716 0 0 0-.714.717v2.137H6.984a4.561 4.561 0 0 1-4.555-4.557zm21.858 5.38a5.2 5.2 0 0 0 .014.114l.008.043.002.011.008.047c.087.515.264 1.004.523 1.446l.417.714h-7.643a2.889 2.889 0 0 1-2.886-2.886v-1.733h9.525v1.733c0 .08.003.166.01.263l.006.088c.004.052.01.105.016.16zm1.411-.224a2.887 2.887 0 0 1-.014-.287v-2.45a.716.716 0 0 0-.715-.716h-3.211v-8.881a2.889 2.889 0 0 1 2.886-2.887h7.642l-.417.714a4.287 4.287 0 0 0-.383.867l-.011.038a4.25 4.25 0 0 0-.053.184l-.008.033-.006.027a4.038 4.038 0 0 0-.079.395l-.007.053-.007.055-.017.168-.004.051-.003.038a4.548 4.548 0 0 0-.009.265l.004 3.695.007 8.359a2.898 2.898 0 0 1-2.775 2.874h-.03l-.054-.002-.018-.001a3.102 3.102 0 0 1-.21-.018l-.053-.008-.01-.002a2.64 2.64 0 0 1-.22-.04l-.037-.01a2.905 2.905 0 0 1-2.188-2.514z"/>
    </g>
</svg>
