<svg xmlns="http://www.w3.org/2000/svg" width="51" height="57" viewBox="0 0 51 57">
    <g fill="none" fill-rule="evenodd">
        <path d="M-10-7h70v70h-70z"/>
        <path fill="#000" fill-rule="nonzero" stroke="#000" stroke-linecap="round" stroke-linejoin="round" stroke-width=".4" d="M46.654 34a3.36 3.36 0 0 0-2.374.989 3.337 3.337 0 0 0-.972 2.374v3.728c-.34 1.998-2.075 3.846-4.963 5.338-3.409 1.76-7.974 2.727-12.83 2.727-4.858 0-9.444-.968-12.852-2.728-2.89-1.491-4.63-3.34-4.97-5.337v-3.728a3.34 3.34 0 0 0-3.347-3.335A3.34 3.34 0 0 0 1 37.363v17.77a.871.871 0 0 0 .907.866h4.934a.83.83 0 0 0 .851-.866V44.97c1.021 1.136 2.402 2.173 4.129 3.064 3.661 1.89 8.524 2.93 13.665 2.93 5.142 0 10.025-1.04 13.687-2.93 1.726-.891 3.114-1.928 4.135-3.064v10.163a.825.825 0 0 0 .85.866h4.935a.878.878 0 0 0 .907-.866v-17.77a3.337 3.337 0 0 0-.972-2.374A3.36 3.36 0 0 0 46.654 34zM4.346 35.809a1.53 1.53 0 0 1 1.531 1.554v2.246H2.815v-2.246a1.53 1.53 0 0 1 .44-1.096 1.54 1.54 0 0 1 1.091-.458zM2.815 54.19V41.418h3.062V54.19H2.815zm43.839-18.382a1.53 1.53 0 0 1 1.531 1.554v2.246h-3.062v-2.246a1.53 1.53 0 0 1 .44-1.096 1.54 1.54 0 0 1 1.09-.458zM45.123 54.19V41.418h3.062V54.19h-3.062zM48.5 1.908A.91.91 0 0 0 47.59 1H3.41a.91.91 0 0 0-.91.908v29.184a.91.91 0 0 0 .91.908h44.18a.91.91 0 0 0 .91-.908V1.908zm-44.178.909h42.356v27.366H4.322V2.817zm4.55 20.854C12.015 19.585 15.22 17.6 18.5 17.6c1.75 0 2.798.63 4.657 2.486l.44.442C26.134 23.065 27.912 24.1 31 24.1c4.706 0 9.005-2.508 12.865-7.42a1.1 1.1 0 0 0-1.73-1.36C38.661 19.741 34.961 21.9 31 21.9c-2.37 0-3.683-.764-5.847-2.928l-.442-.442c-2.235-2.232-3.727-3.13-6.211-3.13-4.054 0-7.848 2.349-11.372 6.93a1.1 1.1 0 0 0 1.744 1.34zM31.5 17c2.481 0 4.5-2.019 4.5-4.5S33.981 8 31.5 8a4.505 4.505 0 0 0-4.5 4.5c0 2.481 2.019 4.5 4.5 4.5zm0-7.07c1.454 0 2.637 1.153 2.637 2.57 0 1.417-1.183 2.57-2.637 2.57s-2.637-1.153-2.637-2.57c0-1.417 1.183-2.57 2.637-2.57z"/>
    </g>
</svg>
