<svg xmlns="http://www.w3.org/2000/svg" width="41" height="54" viewBox="0 0 41 54">
    <g fill="none" fill-rule="evenodd">
        <path d="M-14-8h70v70h-70z"/>
        <g fill-rule="nonzero" stroke="#000" stroke-linecap="round" stroke-linejoin="round" stroke-width="2.5">
            <path d="M5.432 16.954c0-8.217 6.76-14.903 15.068-14.903s15.068 6.686 15.068 14.903c0 4.963-1.179 6.69-10.354 20.128-1.404 2.056-2.957 4.33-4.714 6.923-1.735-2.56-3.27-4.81-4.66-6.845C6.618 23.646 5.433 21.91 5.433 16.954zm14.524 4.727c.44-.174.931-.183 1.378-.026l4.049 1.418-.31-4.16c-.034-.46.109-.916.401-1.28l2.644-3.293-4.18-1a1.927 1.927 0 0 1-1.131-.764l-2.415-3.454-2.274 3.543a1.917 1.917 0 0 1-1.1.806l-4.136 1.158 2.775 3.19c.307.353.468.802.452 1.263l-.142 4.17 3.989-1.571z"/>
            <path d="M17.11 39.022c1.044 1.529 2.167 3.179 3.39 4.983a1985.99 1985.99 0 0 1 3.39-4.983c3.905.333 7.544 1.243 10.353 2.603 3.279 1.586 4.598 2.637 4.598 3.789 0 1.151-1.471 2.442-5.321 4.122-3.569 1.556-8.192 2.413-13.02 2.413-4.828 0-9.451-.857-13.02-2.413-3.85-1.68-5.32-2.97-5.32-4.122 0-1.152 1.318-2.203 4.597-3.79 2.81-1.358 6.449-2.27 10.354-2.602z"/>
        </g>
    </g>
</svg>
