<svg xmlns="http://www.w3.org/2000/svg" width="55" height="54" viewBox="0 0 55 54">
    <g fill="none" fill-rule="evenodd">
        <path d="M-7-8h70v70H-7z"/>
        <path fill="#000" fill-rule="nonzero" stroke="#000" stroke-linecap="round" stroke-linejoin="round" stroke-width=".3" d="M26.645 5.728v6.433l-.152.12c-1.884 1.491-5.21 3.494-9.426 5.778a215.733 215.733 0 0 1-6.283 3.268 1.042 1.042 0 0 0-.579.836C8.924 35.7 5.486 49.196 1.563 51.235c-.429.223-.648.706-.532 1.171a1.05 1.05 0 0 0 1.022.794h51.094a1.05 1.05 0 0 0 1.022-.794 1.037 1.037 0 0 0-.532-1.17c-3.92-2.04-7.36-15.535-8.642-29.073a1.04 1.04 0 0 0-.572-.832 216.258 216.258 0 0 1-6.193-3.269c-4.16-2.285-7.45-4.288-9.328-5.78l-.151-.12v-2.008l.2-.115 5.832-3.343a1.04 1.04 0 0 0 .525-.902c0-.371-.2-.715-.525-.901L28.237 1.14a1.062 1.062 0 0 0-1.054 0c-.326.187-.526.53-.526.902v3.686h-.012zm2.118-1.878l3.392 1.944-3.392 1.944V3.85zm4.298 47.266H22.334V39.851c0-2.939 2.407-5.328 5.364-5.328s5.363 2.39 5.363 5.328v11.265zm6.802-25.89h2.99l.397.303c1.317 10.663 3.522 20.145 6.772 24.964l.42.623H35.167V39.851c0-4.086-3.35-7.412-7.47-7.412-4.118 0-7.468 3.326-7.468 7.412v11.265H4.756l.42-.624c3.25-4.82 5.455-14.299 6.773-24.967l.397-.3h27.517zM39 23.14H11.844l1.485-.757c5.811-2.96 11.155-5.961 14.125-8.202l.242-.183.241.183c2.957 2.242 8.234 5.244 13.959 8.204l1.46.755H39z"/>
    </g>
</svg>
