<svg xmlns="http://www.w3.org/2000/svg" width="68" height="55" viewBox="0 0 68 55">
    <g fill="none" fill-rule="evenodd">
        <path d="M-1-8h70v70H-1z"/>
        <path fill="#000" fill-rule="nonzero" stroke="#000" stroke-linecap="round" stroke-linejoin="round" stroke-width=".1" d="M66.838 10.881C65.11 4.455 49.111 1 34 1 18.89 1 2.89 4.454 1.162 10.881c-.101.163-.157.35-.162.543v31.534c0 6.63 14.527 10.435 29.36 10.973.108.041.223.065.34.069h6.6a1.07 1.07 0 0 0 .34-.069C52.474 53.393 67 49.587 67 42.958V11.424a1.077 1.077 0 0 0-.162-.543zM8.7 47.821c-3.515-1.484-5.5-3.21-5.5-4.863V37.14c.69.6 1.44 1.128 2.236 1.577 1.05.585 2.14 1.093 3.264 1.518v7.586zm0-9.963A20.962 20.962 0 0 1 6.525 36.8C5.008 35.93 3.2 34.569 3.2 33.021v-6.647c.691.6 1.441 1.13 2.239 1.579 1.05.584 2.139 1.093 3.261 1.52v8.385zm0-10.77c-.745-.31-1.471-.662-2.175-1.054-1.517-.87-3.325-2.23-3.325-3.779V16.22a18.465 18.465 0 0 0 5.5 3.078v7.79zm11 23.64a54.98 54.98 0 0 1-8.8-2.076v-7.647a59.974 59.974 0 0 0 8.8 1.998v7.725zm0-9.96a55.013 55.013 0 0 1-8.8-2.078V30.25a59.207 59.207 0 0 0 8.8 1.994v8.525zm0-10.771a55.64 55.64 0 0 1-8.8-2.08v-7.854a60.072 60.072 0 0 0 8.8 1.97v7.964zm-2.444-10.618c2.065-1.322 7.838-2.92 16.744-2.92.642 0 1.274.01 1.884.02 8.225.23 13.037 1.715 14.86 2.9A88.111 88.111 0 0 1 34 20.876a88.09 88.09 0 0 1-16.744-1.496zM25.2 51.405a85.112 85.112 0 0 1-3.3-.36v-7.734c1.076.137 2.176.256 3.3.357v7.737zm0-13.968v4.014a87.08 87.08 0 0 1-3.3-.364V32.55c1.455.184 2.954.336 4.5.455a8.777 8.777 0 0 0-1.2 4.433zM34 51.791c-.744 0-1.475-.01-2.2-.025V40.062h4.4v11.704c-.725.015-1.456.025-2.2.025zm6.6-.212c-.72.047-1.456.085-2.2.116V38.958c0-.609-.492-1.103-1.099-1.104H30.7c-.607 0-1.1.494-1.1 1.103v12.738c-.744-.031-1.48-.069-2.2-.116V37.437c0-3.658 2.955-6.625 6.6-6.625 3.645 0 6.6 2.967 6.6 6.625V51.58zm5.5-.534a85.04 85.04 0 0 1-3.3.36v-7.72c1.147-.1 2.247-.215 3.3-.344v7.704zm0-9.943a89.371 89.371 0 0 1-3.3.36v-4.025a8.782 8.782 0 0 0-1.197-4.43 96.49 96.49 0 0 0 4.497-.423v8.518zm-6.188-10.185a8.714 8.714 0 0 0-11.813-.01 89.151 89.151 0 0 1-6.199-.587v-7.98c4.014.498 8.055.746 12.1.743a97.993 97.993 0 0 0 12.1-.742v7.999a90.515 90.515 0 0 1-6.188.577zM57.1 48.652a54.963 54.963 0 0 1-8.8 2.076v-7.682a56.097 56.097 0 0 0 8.8-1.964v7.57zm0-9.93a53.972 53.972 0 0 1-8.8 2.067v-8.51a55.747 55.747 0 0 0 8.8-1.975v8.419zm0-10.769a54.054 54.054 0 0 1-8.8 2.075v-7.995a60.059 60.059 0 0 0 8.8-1.97v7.89zm7.7 15.005c0 1.653-1.985 3.379-5.5 4.863v-7.528a18.249 18.249 0 0 0 5.5-3.19v5.855zm0-9.937c0 1.565-1.89 3.326-5.5 4.865v-8.375a18.402 18.402 0 0 0 5.5-3.19v6.7zm0-10.766c0 1.614-1.94 3.358-5.5 4.87v-7.828a18.466 18.466 0 0 0 5.5-3.078v6.036zm-11.513-3.432a8.367 8.367 0 0 0-4.267-2.63l-2.432-.681a50.312 50.312 0 0 0-7.422-1.071L36.66 14.3c-.242-.01-.487-.022-.726-.028a70.08 70.08 0 0 0-4.59.034l-2.509.136a49.42 49.42 0 0 0-7.414 1.078l-2.426.688a8.493 8.493 0 0 0-4.273 2.618C7.52 17.083 3.2 14.482 3.2 12.042c0-4.179 12.649-8.833 30.8-8.833 18.15 0 30.8 4.654 30.8 8.833 0 2.439-4.315 5.038-11.513 6.781z"/>
    </g>
</svg>
