<svg xmlns="http://www.w3.org/2000/svg" width="58" height="51" viewBox="0 0 58 51">
    <g fill="none" fill-rule="evenodd">
        <path d="M-6-10h70v70H-6z"/>
        <path fill="#000" fill-rule="nonzero" stroke="#000" stroke-width=".2" d="M57 16.94a7.848 7.848 0 0 1-4.687 7.178l-.257.114.068.274c.001.004.002.017.002.07v24.363c0 .582-.477 1.061-1.059 1.061H6.921a1.064 1.064 0 0 1-1.058-1.06V24.182l-.198-.088A7.825 7.825 0 0 1 1 16.94c0-.176.049-.352.143-.522L9.56 1.54c.184-.336.535-.541.917-.541h37.037c.375 0 .73.21.917.54l8.428 14.88a.972.972 0 0 1 .142.52zM11.094 3.132L4.14 15.437h49.72L46.894 3.133h-35.8zM41.39 17.546H30.088l.068.393a5.674 5.674 0 0 0 5.582 4.693 5.674 5.674 0 0 0 5.582-4.693l.069-.393zm-13.465 0H16.609l.071.394c.486 2.7 2.835 4.692 5.593 4.692a5.674 5.674 0 0 0 5.582-4.693l.069-.393zm-24.709.393c.474 2.703 2.827 4.705 5.583 4.693a5.686 5.686 0 0 0 5.592-4.693l.07-.393H3.145l.07.393zm12.476 29.94h8.661V32.492a2.315 2.315 0 0 0-2.31-2.322h-4.04a2.315 2.315 0 0 0-2.311 2.322v15.387zm34.317 0V24.753h-.33a6.09 6.09 0 0 0-.25.006 7.778 7.778 0 0 1-6.69-3.451l-.273-.408-.274.408a7.757 7.757 0 0 1-6.453 3.457 7.772 7.772 0 0 1-6.453-3.457l-.272-.406-.274.405c-1.453 2.148-3.848 3.458-6.466 3.458a7.778 7.778 0 0 1-6.464-3.457l-.274-.408-.273.408a7.778 7.778 0 0 1-6.702 3.455 4.186 4.186 0 0 1-.226-.01l-.354-.024V47.89h5.582v-15.4c0-2.449 1.989-4.442 4.428-4.442h4.04c2.442 0 4.428 1.997 4.428 4.443v15.387h23.55zm-.805-25.235c2.754 0 5.107-2 5.593-4.692l.071-.394H43.552l.07.393a5.674 5.674 0 0 0 5.581 4.693zm-6.994 5.1a3.439 3.439 0 0 1 3.432 3.438v5.829a3.439 3.439 0 0 1-3.432 3.437h-7.583a3.439 3.439 0 0 1-3.433-3.437v-5.829a3.439 3.439 0 0 1 3.433-3.437h7.583zm1.357 9.267v-5.829c0-.749-.608-1.363-1.357-1.363h-7.583c-.744 0-1.357.61-1.357 1.363v5.829c0 .749.608 1.363 1.357 1.363h7.583c.744 0 1.357-.61 1.357-1.363z"/>
    </g>
</svg>
