<svg xmlns="http://www.w3.org/2000/svg" width="26" height="81" viewBox="0 0 26 81">
    <path fill="#000" fill-rule="nonzero" d="M8.265 34.75H5.5v37.083c1.21 4.365 3.719 6.417 7.75 6.417 4.031 0 6.54-2.052 7.75-6.417V34.75h-2.418a4 4 0 1 1-4.665 0h-1.682a2 2 0 0 1-3.97 0zM5.5 32.25H21v-8H5.5v8zm18-8V72c0 .109-.014.217-.042.322-1.475 5.529-4.954 8.428-10.208 8.428-5.254 0-8.733-2.9-10.208-8.428A1.25 1.25 0 0 1 3 72V24.25H1.25a1.25 1.25 0 0 1 0-2.5h23a1.25 1.25 0 0 1 0 2.5h-.75zM16.25 40a2 2 0 1 0 0-4 2 2 0 0 0 0 4zM9.5 48a3.5 3.5 0 1 1 0-7 3.5 3.5 0 0 1 0 7zm0-2a1.5 1.5 0 1 0 0-3 1.5 1.5 0 0 0 0 3zm.25-28a3.5 3.5 0 1 1 0-7 3.5 3.5 0 0 1 0 7zm0-2a1.5 1.5 0 1 0 0-3 1.5 1.5 0 0 0 0 3zm5.5-6a5 5 0 1 1 0-10 5 5 0 0 1 0 10zm0-2a3 3 0 1 0 0-6 3 3 0 0 0 0 6zM13.5 57.75a3.5 3.5 0 1 1 0-7 3.5 3.5 0 0 1 0 7zm0-2a1.5 1.5 0 1 0 0-3 1.5 1.5 0 0 0 0 3zM12.25 66a2 2 0 1 1 0-4 2 2 0 0 1 0 4zM16 48a2 2 0 1 1 0-4 2 2 0 0 1 0 4z"/>
</svg>
