<svg xmlns="http://www.w3.org/2000/svg" width="58" height="69" viewBox="0 0 58 69">
    <g fill="#000" fill-rule="nonzero">
        <path d="M42.74 66.116H34.8v-2.875h7.94c1.267 0 3.66-2.587 3.66-3.959v-19.04h2.9v19.04c0 2.76-3.454 6.834-6.56 6.834zM47.844 33.744a1.447 1.447 0 0 1-1.322-.845c-.82-1.806-1.325-3.149-1.537-4.103C43.825 23.598 39.95 11.517 29 11.517c-10.948 0-14.825 12.081-15.985 17.279-.183.814-.571 1.903-1.192 3.324a1.467 1.467 0 0 1-1.905.753 1.425 1.425 0 0 1-.757-1.886c.67-1.538.925-2.378 1.02-2.815C12.955 15.77 19.81 8.645 28.998 8.645s16.046 7.124 18.815 19.527c.116.52.438 1.547 1.349 3.536.33.725.006 1.576-.725 1.904a1.314 1.314 0 0 1-.592.132z"/>
        <path d="M47.85 24.429c-.797 0-1.45-.647-1.45-1.438v-3.17c0-9.178-7.97-16.937-17.4-16.937s-17.4 7.75-17.4 16.936v3.174c0 .79-.65 1.438-1.45 1.438-.8 0-1.45-.65-1.45-1.44V19.82C8.7 9.085 17.997.01 29 .01S49.3 9.076 49.3 19.82v3.174c0 .788-.652 1.435-1.45 1.435zM29 57.425c-7.995 0-14.5-7.009-14.5-15.634V31.616c0-.79.65-1.437 1.45-1.437.8 0 1.45.647 1.45 1.437v10.175c0 7.035 5.203 12.76 11.6 12.76 6.397 0 11.6-5.716 11.6-12.76V31.616c0-.79.652-1.437 1.45-1.437.797 0 1.45.647 1.45 1.437v10.175c0 8.62-6.505 15.634-14.5 15.634z"/>
        <path d="M10.15 43.116H5.8c-3.199 0-5.8-2.576-5.8-5.75v-8.625c0-3.174 2.601-5.75 5.8-5.75h4.35c.8 0 1.45.647 1.45 1.438v17.25c0 .79-.65 1.437-1.45 1.437zM5.8 25.866c-1.598 0-2.9 1.288-2.9 2.875v8.625c0 1.587 1.302 2.875 2.9 2.875h2.9V25.866H5.8zM52.2 43.116h-4.35c-.797 0-1.45-.647-1.45-1.437v-17.25c0-.79.653-1.438 1.45-1.438h4.35c3.202 0 5.8 2.576 5.8 5.75v8.625c0 3.174-2.598 5.75-5.8 5.75zm-2.9-2.875h2.9c1.598 0 2.9-1.288 2.9-2.875v-8.625c0-1.587-1.302-2.875-2.9-2.875h-2.9v14.375zM33.35 68.991h-8.7c-2.398 0-4.35-1.934-4.35-4.312s1.952-4.313 4.35-4.313h8.7c2.398 0 4.35 1.935 4.35 4.313 0 2.377-1.952 4.312-4.35 4.312zm-8.7-5.75c-.8 0-1.45.647-1.45 1.438 0 .79.65 1.437 1.45 1.437h8.7c.797 0 1.45-.647 1.45-1.437s-.652-1.438-1.45-1.438h-8.7z"/>
        <path d="M46.038 33.054c-3.823 0-10.409-4.307-13.61-8.625C28.1 32.786 11.79 33.054 11.6 33.054c-.8 0-1.45-.647-1.45-1.438 0-.79.65-1.437 1.45-1.437 4.008 0 18.972-1.73 18.972-10.183 0-.794.65-1.438 1.45-1.438.8 0 1.45.644 1.45 1.438 0 3.142 8.691 10.183 12.566 10.183.797 0 1.45.647 1.45 1.437 0 .791-.653 1.438-1.45 1.438z"/>
    </g>
</svg>
