<svg xmlns="http://www.w3.org/2000/svg" width="69" height="68" viewBox="0 0 69 68">
    <g fill="#000" fill-rule="nonzero">
        <path d="M7.619 66.067h2.875a4.16 4.16 0 0 1 4.168-4.151 3.751 3.751 0 0 1 1.51.286l1.222.501.575-1.217a3.955 3.955 0 0 1 3.45-2.075 3.803 3.803 0 0 1 3.81 3.578l.143 1.933 1.797-.644 1.006-.143a3.013 3.013 0 0 1 3.019 3.006v.143h2.875v-.215c0-3.241-2.639-5.869-5.894-5.869h-.36a6.682 6.682 0 0 0-6.396-4.653 6.55 6.55 0 0 0-5.319 2.649l-1.438-.143a5.411 5.411 0 0 0-1.868.286 6.754 6.754 0 0 0-6.325-4.51A6.616 6.616 0 0 0 .43 58.48l2.588 1.288a3.811 3.811 0 0 1 3.45-2.075 3.734 3.734 0 0 1 3.665 2.934 7.217 7.217 0 0 0-2.515 5.44zM61.884 61.63a3.803 3.803 0 0 1 3.81 3.578l2.875-.143c-.191-3.536-3.129-6.304-6.685-6.299a6.844 6.844 0 0 0-4.528 1.718 7.698 7.698 0 0 0-6.612-3.65 7.906 7.906 0 0 0-7.331 5.01 7.974 7.974 0 0 0-6.397 4.796l2.659 1.074a5.032 5.032 0 0 1 4.672-3.078h1.294l.215-1.145c.422-2.596 2.811-4.408 5.436-4.122 2.624.287 4.564 2.57 4.411 5.195.005.486-.068.969-.216 1.432l2.732.93a6.133 6.133 0 0 0 .36-2.29 5.418 5.418 0 0 0-.073-1.074 3.74 3.74 0 0 1 3.378-1.933zM34.572 28.632c3.136 0 5.678-2.532 5.678-5.655s-2.542-5.655-5.678-5.655-5.678 2.532-5.678 5.655c0 1.5.598 2.938 1.663 3.998a5.69 5.69 0 0 0 4.015 1.657zm0-8.447a2.797 2.797 0 0 1 2.803 2.792 2.797 2.797 0 0 1-2.803 2.791 2.797 2.797 0 0 1-2.803-2.791 2.797 2.797 0 0 1 2.803-2.792z"/>
        <path d="M50.169 42.733l.934-1.074a10.497 10.497 0 0 0 2.816-7.615 10.504 10.504 0 0 0-3.463-7.345 12.156 12.156 0 0 0-4.384-2.648c-.288-8.447-3.81-16.32-10.494-22.906L34.572.143l-1.006 1.002c-6.685 6.586-10.207 14.46-10.494 22.906a11.364 11.364 0 0 0-4.313 2.648 10.505 10.505 0 0 0-3.499 7.33 10.497 10.497 0 0 0 2.78 7.63l.935 1.074 6.253-5.584a33.66 33.66 0 0 0 3.81 7.516c1.078 1.575 3.665 2.22 5.821 2.22h.072c1.15 0 3.81-.216 4.96-1.79a37.59 37.59 0 0 0 4.025-7.946l6.253 5.584zm.862-8.518a7.635 7.635 0 0 1-1.15 4.366l-4.743-4.223h.143l-.36-.43c.217-.715.36-1.36.504-2.075.298-1.56.49-3.139.575-4.725.898.51 1.74 1.11 2.516 1.79a7.86 7.86 0 0 1 2.515 5.297zM34.571 4.223a35.524 35.524 0 0 1 3.882 4.94 9.74 9.74 0 0 1-7.762 0 35.524 35.524 0 0 1 3.88-4.94zm-5.318 7.444a12.694 12.694 0 0 0 5.319 1.146 12.478 12.478 0 0 0 5.319-1.146 29.953 29.953 0 0 1 2.73 19.613c-.143.501-.215 1.002-.358 1.575a14.57 14.57 0 0 1-15.382 0c-.072-.501-.215-1.002-.287-1.503a28.883 28.883 0 0 1 2.66-19.685zm-8.625 17.18c.775-.681 1.618-1.28 2.516-1.79.074 1.638.29 3.266.647 4.867.074.658.219 1.306.43 1.933l-.287.43h.072l-4.744 4.222a7.85 7.85 0 0 1 1.366-9.663zm16.89 14.601a5.338 5.338 0 0 1-3.09.573c-1.725-.143-2.803-.644-3.019-.93a32.161 32.161 0 0 1-3.306-6.443 16.883 16.883 0 0 0 12.938 0 35.95 35.95 0 0 1-3.522 6.8zM33.134 50.75h2.875v7.544h-2.875zM39.819 48.745h2.875v6.206h-2.875zM26.45 48.745h2.875v6.206H26.45z"/>
    </g>
</svg>
