<svg xmlns="http://www.w3.org/2000/svg" width="58" height="56" viewBox="0 0 58 56">
    <g fill="none" fill-rule="nonzero">
        <path fill="#000" d="M52.479 41.603l-3.495-1.946A23.88 23.88 0 0 0 52 28C52 14.745 41.255 4 28 4S4 14.745 4 28s10.745 24 24 24c2.251 0 4.459-.31 6.58-.913l1.095 3.848A28.017 28.017 0 0 1 28 56C12.536 56 0 43.464 0 28S12.536 0 28 0s28 12.536 28 28a27.88 27.88 0 0 1-3.521 13.603z"/>
        <path stroke="#000" stroke-width="3" d="M48.096 48.5l.767 1.668a4 4 0 1 0 0-3.336l-.767 1.668zm-1.192 0l-.767-1.668a4 4 0 1 0 0 3.336l.767-1.668z"/>
        <path fill="#000" d="M21.24 16.948a2 2 0 1 1 3.52-1.896l7 13a2 2 0 0 1-.678 2.63l-14 9a2 2 0 0 1-2.164-3.364l12.444-8-6.123-11.37z"/>
    </g>
</svg>
